<svg id="google-maps" xmlns="http://www.w3.org/2000/svg" width="18.149" height="25.977" viewBox="0 0 18.149 25.977">
  <path id="Path_11357" data-name="Path 11357" d="M106.266,140.386l-2.7,3.981-3.986,3.967a29.26,29.26,0,0,1-4.089-5.917l2.149-3.292,3.3-3.18a3.468,3.468,0,0,0,5.151,4.629C106.151,140.513,106.21,140.45,106.266,140.386Z" transform="translate(-94.563 -129.048)" fill="#ecb72b"/>
  <path id="Path_11358" data-name="Path 11358" d="M209.759,19.171a3.468,3.468,0,0,0-5.142-4.64q-.085.085-.163.175l2.273-3.7,3.084-2.679a9.1,9.1,0,0,1,5.309,4.464l-2.25,3.628Z" transform="translate(-197.994 -7.907)" fill="#5085f7"/>
  <path id="Path_11359" data-name="Path 11359" d="M83.509,67.665l-5.444,6.471a10.327,10.327,0,0,1-.927-4.035c0-.086,0-.172,0-.258a9.038,9.038,0,0,1,2.118-5.828Z" transform="translate(-77.133 -60.767)" fill="#da2f2a"/>
  <path id="Path_11360" data-name="Path 11360" d="M123.134,6.9l-4.258-3.65a9.087,9.087,0,0,1,9.7-2.825Z" transform="translate(-116.758 0)" fill="#4274eb"/>
  <path id="Path_11361" data-name="Path 11361" d="M189.206,100.5a9.036,9.036,0,0,0-1.022-4.189l-12.107,14.4a15.03,15.03,0,0,1,3.155,5.756c.017.071.035.153.054.246a.865.865,0,0,0,1.693,0c.019-.093.037-.175.054-.246,1.393-5.88,8.006-8.885,8.17-15.709C189.2,100.669,189.206,100.582,189.206,100.5Z" transform="translate(-171.056 -91.421)" fill="#60a850"/>
</svg>
